<svg fill="none" height="56" viewBox="0 0 56 56" width="56" xmlns="http://www.w3.org/2000/svg" xmlns:xlink="http://www.w3.org/1999/xlink"><clipPath id="a"><path d="m0 0h56v56h-56z"/></clipPath><g clip-path="url(#a)"><path d="m1.00004 24.5c0 9.665 7.83501 17.5 17.49996 17.5 9.665 0 17.5-7.835 17.5-17.5s-7.835-17.5-17.5-17.5c-9.66495 0-17.49996 7.835-17.49996 17.5z" fill="#59c3eb"/><path d="m18.5002 42v-34.76971" stroke="#2496cb" stroke-miterlimit="10" stroke-width="1.0083"/><path clip-rule="evenodd" d="m51.6817 11.5575c-.0001-.0001-.0001-.0001-.0001-.0001l-.0001.0002c-.0817.0137-18.7936 3.1704-25.4801 14.7516-6.701 11.6066 4.0886 22.3 4.0886 22.3l.0644-.1117c.0635.0178 14.6056 4.0836 21.292-7.4976 6.6864-11.5813.0643-29.3647.0353-29.4423l.0001-.0001s0 0-.0001 0z" fill="#14a87d" fill-rule="evenodd"/><g stroke="#0a8f6b" stroke-miterlimit="10" stroke-width="1.0833"><path d="m53.2411 26.1392-11.4522 3.0686"/><path d="m50.8999 13-21.9631 37.9528"/><path d="m52.1287 36.8142-17.6035 4.7169"/><path d="m40.0442 31.8432-3.1951-12.9303"/><path d="m31.948 45.9952-4.8618-18.1446"/><path d="m45.9619 21.8264-1.6882-6.3003"/></g><path clip-rule="evenodd" d="m34.736 17.9575c-3.38 2.1088-6.5086 4.8438-8.5338 8.3517-3.0458 5.2753-2.4782 10.362-.9528 14.3418 6.3142-2.6418 10.7506-8.8783 10.7506-16.151 0-2.3131-.4488-4.5214-1.264-6.5425z" fill="#f7605f" fill-rule="evenodd" opacity=".8"/></g></svg>