<svg fill="none" height="14" viewBox="0 0 14 14" width="14" xmlns="http://www.w3.org/2000/svg"><path clip-rule="evenodd" d="m8.91101 3.16345c.05798-.21127.08899-.43374.08899-.66345 0-1.38071-1.11929-2.5-2.5-2.5s-2.5 1.11929-2.5 2.5c0 1.20947.85889 2.21835 2 2.44998v.33991c-2.89148.86053-5 3.53909-5 6.71011 0 1.1046.89542 2 2 2h8.5c.2761 0 .5-.2238.5-.5s-.2239-.5-.5-.5h-7.5-.5c-.27615 0-.5-.2238-.5-.5s.22385-.5.5-.5h2.5 2 1 1c0-.5523-.44769-1-1-1h-.17072c-.16955-.4798-.45776-.9036-.82928-1.23611v-1.76389c0-.55228.44769-1 1-1h2.4648c.3344 0 .6466-.16711.8321-.44531l.7031-1.05469z" fill="#666d74" fill-rule="evenodd"/></svg>