<svg fill="none" height="16" viewBox="0 0 16 16" width="16" xmlns="http://www.w3.org/2000/svg"><circle cx="8" cy="8" r="7.5" stroke="#666d74"/><path d="m8.74913 6.15307v6.84693h-1.49826v-6.84693zm.25087-2.14855c0 .13486-.02787.26275-.08362.38367-.05111.12091-.12312.22787-.21603.32088-.09292.08836-.20209.16045-.32753.21625-.12079.05116-.25087.07674-.39024.07674-.13473 0-.26249-.02558-.38328-.07674-.11614-.0558-.21835-.12789-.30662-.21625-.08827-.09301-.16028-.19997-.21602-.32088-.05111-.12092-.07666-.24881-.07666-.38367 0-.13952.02555-.26973.07666-.39065.05574-.12091.12775-.22555.21602-.31391.08827-.09301.19048-.16509.30662-.21625.12079-.05581.24855-.08371.38328-.08371.13937 0 .26945.0279.39024.08371.12544.05116.23461.12324.32753.21625.09291.08836.16492.193.21603.31391.05575.12092.08362.25113.08362.39065z" fill="#666d74"/></svg>