<svg fill="none" height="32" viewBox="0 0 154 32" width="154" xmlns="http://www.w3.org/2000/svg" xmlns:xlink="http://www.w3.org/1999/xlink"><radialGradient id="a" cx="0" cy="0" gradientTransform="matrix(15.04460487 1.71553393 -1.71553393 15.04460487 134.691 20.3339)" gradientUnits="userSpaceOnUse" r="1"><stop offset=".3" stop-color="#fdea65"/><stop offset="1" stop-color="#fcb431"/></radialGradient><path clip-rule="evenodd" d="m153.329 9.79037c-1.555.98033-2.647 1.51953-3.944 2.29953-7.676 4.6147-15.042 9.7846-20.763 16.5628l-2.725 3.3473-8.445-13.4009c1.885 1.5003 6.587 5.7172 8.488 6.6553l6.193-4.6578c4.33-3.0554 16.528-9.6578 21.196-10.80623z" fill="url(#a)" fill-rule="evenodd"/><path clip-rule="evenodd" d="m122.62 21.1261-.141-.1101c-1.804-6.6336-5.837-13.10341-10.51-18.15197l4.079-.07563c3.353 5.14869 6.474 12.0746 6.572 18.3377z" fill="#3176a3" fill-rule="evenodd"/><path clip-rule="evenodd" d="m124.078 21.7348c-.307-7.1266-1.633-14.26293-7.836-21.7213858l25.357-.0134142c1.426 1.60146 3.08 11.0774 2.933 11.1771-.14.0951-.154.0996-.316.2313-.034-.0492-1.114-4.38658-1.449-5.35863-.352-1.01571-.342-1.21296-.781-1.39607-1.541-.645-1.648-.62583-2.841-1.99616-.075-.09402-.172-.23657-.264-.32858-.099-.09933-.208-.08732-.461-.09575-1.608-.05475-4.7.07017-5.942.06659-2.35-.00687-4.698-.01233-7.048-.02105-.82 1.32619-.935 1.55452-2.49 2.16192.27 1.58291 1.678 4.02554 2.501 8.56883.594 3.2754.883 6.9699.568 10.4156l-1.923-1.4829c-.001-.059-.004-.1279-.008-.2074z" fill="#286a8e" fill-rule="evenodd"/><path clip-rule="evenodd" d="m113.001 7.3259c2.965 3.1463 6.933 8.3288 7.631 12.7188l-.131-.0907c-2.377-4.5914-7.852-9.3402-11.938-12.42005l.147-.00686 3.808-.17809z" fill="#52a0d7" fill-rule="evenodd"/><g fill="#424242"><path d="m57.5228 25.1141c.6318.6583 1.6128 1.2095 2.8492 1.2095 1.0482 0 1.5591-.4974 1.5591-1.008 0-.672-.7796-.9004-1.8144-1.1423-1.465-.3361-3.3465-.7392-3.3465-2.7419 0-1.4918 1.2901-2.7014 3.4003-2.7014 1.4247 0 2.6073.4301 3.4943 1.25l-1.0617 1.3977c-.7258-.6721-1.6934-.9811-2.567-.9811-.8601 0-1.3172.3763-1.3172.9139 0 .6047.7527.793 1.7875 1.0348 1.4784.3362 3.3599.7795 3.3599 2.7688 0 1.6397-1.1691 2.876-3.5883 2.876-1.7204 0-2.9567-.578-3.8034-1.4247z"/><path d="m68.1408 21.1761c1.3307 0 2.1371.5779 2.567 1.1826l-1.1154 1.0351c-.309-.4437-.7795-.699-1.371-.699-1.0348 0-1.7606.7527-1.7606 1.8816 0 1.1288.7258 1.8949 1.7606 1.8949.5915 0 1.062-.2687 1.371-.6989l1.1154 1.0351c-.4299.6046-1.2363 1.1826-2.567 1.1826-2.0024 0-3.4406-1.4113-3.4406-3.4137 0-1.989 1.4382-3.4003 3.4406-3.4003z"/><path d="m76.219 23.8775c0-.9005-.4702-1.1826-1.2095-1.1826-.6586 0-1.1826.3762-1.4784.7661v4.3679h-1.7069v-8.9645h1.7069v3.3196c.4168-.4972 1.2232-1.0079 2.2848-1.0079 1.4248 0 2.11.7794 2.11 2.0428v4.61h-1.7069z"/><path d="m79.2031 24.5764c0-1.8412 1.2901-3.4003 3.4272-3.4003 2.1502 0 3.4405 1.5591 3.4405 3.4003 0 1.8547-1.2903 3.4137-3.4405 3.4137-2.1371 0-3.4272-1.5591-3.4272-3.4137zm5.0937 0c0-1.0079-.6049-1.8815-1.6665-1.8815-1.062 0-1.6531.8736-1.6531 1.8815 0 1.0214.5911 1.895 1.6531 1.895 1.0616 0 1.6665-.8736 1.6665-1.895z"/><path d="m87.335 18.8644h1.7068v8.9645h-1.7068z"/><path d="m94.6325 27.1568c-.4436.5243-1.2097.8333-2.0564.8333-1.0348 0-2.2577-.6989-2.2577-2.1505 0-1.5185 1.2229-2.0696 2.2577-2.0696.8601 0 1.6262.2687 2.0564.793v-.9005c0-.6586-.5645-1.0886-1.4247-1.0886-.6989 0-1.3438.2553-1.8949.7661l-.6452-1.1425c.7929-.699 1.8143-1.0214 2.8357-1.0214 1.4785 0 2.836.5913 2.836 2.4595v4.1933h-1.7069zm0-1.6934c-.2824-.3762-.8198-.5645-1.3709-.5645-.6721 0-1.223.363-1.223.981 0 .6049.5509.9545 1.223.9545.5511 0 1.0885-.1884 1.3709-.5646z"/><path d="m98.0337 21.3374h1.7069v.887c.4574-.5779 1.2634-1.0348 2.0694-1.0348v1.6665c-.121-.0268-.282-.0403-.47-.0403-.565 0-1.317.309-1.5994.7258v4.2873h-1.7069z"/><path d="m.658653 25.7187c.591177.6586 1.558817 1.2769 2.822307 1.2769 1.59939 0 2.10992-.8601 2.10992-1.5456 0-1.0751-1.08857-1.371-2.27117-1.6934-1.43817-.3762-3.037554-.7796-3.037554-2.5402 0-1.4784 1.317234-2.4864 3.077844-2.4864 1.37069 0 2.43268.457 3.18508 1.25l-.67179.8198c-.67207-.7392-1.61281-1.0753-2.5939-1.0753-1.0754 0-1.84122.578-1.84122 1.4246 0 .9006 1.0348 1.1693 2.17711 1.4786 1.46504.3896 3.13159.8467 3.13159 2.7282 0 1.3036-.88703 2.6342-3.30626 2.6342-1.55907 0-2.701381-.5914-3.44061-1.4247z"/><path d="m11.1963 21.1761c1.9622 0 3.1182 1.5322 3.1182 3.4809v.2553h-5.25499c.08061 1.2232.94079 2.2445 2.33829 2.2445.7393 0 1.4919-.2955 2.0028-.8198l.4837.6586c-.645.6452-1.5185.9945-2.5805.9945-1.92181 0-3.30624-1.3844-3.30624-3.4137 0-1.8815 1.34411-3.4003 3.19874-3.4003zm-2.13679 2.997h4.26039c-.0134-.9677-.6586-2.1638-2.137-2.1638-1.38416-.0001-2.06965 1.1693-2.12339 2.1638z"/><path d="m23.7766 23.4207c0-.8199-.3631-1.3441-1.1963-1.3441-.6721 0-1.3841.4839-1.7203.9945v4.7578h-1.008v-4.4082c0-.8199-.3493-1.3441-1.196-1.3441-.6586 0-1.3576.4839-1.7069 1.0079v4.7444h-1.0082v-6.4916h1.0082v.9408c.2687-.4167 1.1423-1.102 2.0965-1.102.9945 0 1.5591.5376 1.7472 1.2095.3628-.5913 1.2364-1.2095 2.1774-1.2095 1.1826 0 1.8144.6585 1.8144 1.9621v4.6907h-1.008z"/><path d="m30.8597 27.0897c-.5375.5914-1.2767.9004-2.1503.9004-1.1023 0-2.2714-.7392-2.2714-2.1505 0-1.4513 1.1692-2.1368 2.2714-2.1368.887 0 1.6263.2821 2.1503.887v-1.1692c0-.8735-.699-1.3709-1.6397-1.3709-.7796 0-1.411.2821-1.989.9004l-.4706-.6989c.699-.7258 1.5322-1.0751 2.5939-1.0751 1.371 0 2.5133.6181 2.5133 2.1908v4.4619h-1.0079zm0-1.8547c-.3897-.5377-1.0752-.8064-1.7875-.8064-.9408 0-1.5994.5912-1.5994 1.4244 0 .8199.6586 1.4113 1.5994 1.4113.7123 0 1.3978-.2687 1.7875-.8064z"/><path d="m38.2651 23.5819c0-1.1426-.5777-1.5053-1.4513-1.5053-.7929 0-1.5456.4839-1.9218 1.0079v4.7444h-1.0082v-6.4916h1.0082v.9408c.4568-.5376 1.3438-1.102 2.3114-1.102 1.3576 0 2.0697.6853 2.0697 2.0965v4.5563h-1.008z"/><path d="m41.4921 26.4714v-4.247h-1.0751v-.8871h1.0751v-1.774h1.0082v1.774h1.3169v.8871h-1.3169v4.032c0 .4837.2149.8333.6583.8333.2824 0 .5511-.1209.6855-.2687l.2956.7524c-.2553.2421-.6181.4168-1.2095.4168-.9541-.0001-1.4381-.5512-1.4381-1.5188z"/><path d="m45.0669 19.5633c0-.3763.309-.6721.6721-.6721.3761 0 .6855.2958.6855.6721s-.3094.6853-.6855.6853c-.3631 0-.6721-.309-.6721-.6853zm.1747 1.774h1.0079v6.4916h-1.0079z"/><path d="m51.1287 21.1761c1.1826 0 1.8815.4838 2.3786 1.1289l-.672.6183c-.4299-.5915-.9811-.8468-1.6529-.8468-1.3844 0-2.2445 1.0617-2.2445 2.4999 0 1.4381.8602 2.5133 2.2445 2.5133.6718 0 1.223-.2687 1.6529-.8468l.672.6183c-.4971.645-1.196 1.1289-2.3786 1.1289-1.9356 0-3.2391-1.4784-3.2391-3.4137 0-1.9218 1.3035-3.4003 3.2391-3.4003z"/><path d="m31.6479 3.54334h3.602c1.8009 0 2.8089 1.23648 2.8089 2.70138 0 1.46503-1.0348 2.70137-2.8089 2.70137h-2.4864v3.56151h-1.1156zm3.4675.99451h-2.3519v3.41373h2.3519c1.0618 0 1.7876-.69879 1.7876-1.70686 0-1.00793-.7258-1.70687-1.7876-1.70687z"/><path d="m38.9468 9.25511c0-1.8814 1.2365-3.40003 3.2122-3.40003s3.212 1.51863 3.212 3.40003c0 1.88179-1.2363 3.41369-3.212 3.41369s-3.2122-1.5319-3.2122-3.41369zm5.3626 0c0-1.31695-.7661-2.49955-2.1504-2.49955s-2.1638 1.1826-2.1638 2.49955c0 1.33069.7795 2.51329 2.1638 2.51329 1.3842 0 2.1504-1.1826 2.1504-2.51329z"/><path d="m50.9352 7.29312-1.6933 5.21448h-1.0081l-2.0697-6.49125h1.0484l1.5859 5.17435 1.7067-5.17435h.8602l1.7068 5.17435 1.586-5.17435h1.0484l-2.0698 6.49125h-1.0081z"/><path d="m59.6988 5.85508c1.9621 0 3.118 1.53194 3.118 3.48092v.25528h-5.255c.0806 1.22292.9408 2.24432 2.3385 2.24432.7392 0 1.4919-.2956 2.0026-.8196l.4838.6584c-.6451.6451-1.5186.9945-2.5804.9945-1.9219 0-3.3063-1.3842-3.3063-3.41376 0-1.88143 1.3441-3.40006 3.1988-3.40006zm-2.137 2.99697h4.2605c-.0135-.96763-.6586-2.16379-2.137-2.16379-1.3842-.00003-2.0697 1.16929-2.1235 2.16379z"/><path d="m64.4438 6.01631h1.0081v1.04825c.5241-.68534 1.2768-1.1826 2.1638-1.1826v1.0348c-.1211-.02687-.242-.04032-.4032-.04032-.6183 0-1.465.51056-1.7606 1.0348v4.59636h-1.0081z"/><path d="m71.7014 5.85508c1.9624 0 3.1182 1.53194 3.1182 3.48092v.25528h-5.255c.0806 1.22292.9408 2.24432 2.3386 2.24432.7393 0 1.4917-.2956 2.0025-.8196l.4839.6584c-.6452.6451-1.5188.9945-2.5804.9945-1.9221 0-3.3063-1.3842-3.3063-3.41376 0-1.88143 1.3439-3.40006 3.1985-3.40006zm-2.1368 2.99697h4.2605c-.0135-.96763-.6587-2.16379-2.1371-2.16379-1.3841-.00003-2.0696 1.16929-2.1234 2.16379z"/><path d="m81.1506 11.54c-.484.6586-1.277 1.1288-2.1908 1.1288-1.6934 0-2.8895-1.29-2.8895-3.40027 0-2.06949 1.1826-3.41345 2.8895-3.41345.8736 0 1.6665.43007 2.1908 1.14231v-3.45405h1.0079v8.96426h-1.0079zm0-3.73619c-.3631-.56445-1.1426-1.04825-1.949-1.04825-1.3035 0-2.083 1.07512-2.083 2.513 0 1.43814.7795 2.49984 2.083 2.49984.8064 0 1.5859-.4568 1.949-1.0214z"/><path d="m87.6426 3.54334h1.0079v3.45405c.5243-.71221 1.3038-1.14231 2.1908-1.14231 1.6934 0 2.8895 1.34396 2.8895 3.41345 0 2.11017-1.1961 3.40027-2.8895 3.40027-.9139 0-1.7068-.4702-2.1908-1.1288v.9676h-1.0079zm2.9435 8.22506c1.3169 0 2.0965-1.0617 2.0965-2.49984 0-1.43788-.7796-2.513-2.0965-2.513-.793 0-1.586.4838-1.9356 1.04825v2.94319c.3496.5646 1.1426 1.0214 1.9356 1.0214z"/><path d="m95.7205 14.2414c.4434 0 .739-.1478.9677-.6855l.4299-.9811-2.7148-6.55845h1.0886l2.1639 5.32215 2.1502-5.32215h1.102l-3.2522 7.80855c-.3899.9407-1.0482 1.3035-1.9084 1.3169-.2152 0-.5511-.0403-.7392-.094l.1612-.9139c.1478.0671.3896.1075.5511.1075z"/></g></svg>