<svg width="316" height="40" viewBox="0 0 316 40" fill="none" xmlns="http://www.w3.org/2000/svg">
<g clip-path="url(#clip0)">
<path fill-rule="evenodd" clip-rule="evenodd" d="M162.912 12.238C160.968 13.4634 159.603 14.1374 157.981 15.1123C148.387 20.8807 139.179 27.3431 132.028 35.8158L128.621 40L118.065 23.2488C120.421 25.1243 126.298 30.3954 128.675 31.568L136.416 25.7458C141.83 21.9266 157.076 13.6735 162.912 12.238Z" fill="url(#paint0_radial)"/>
<path fill-rule="evenodd" clip-rule="evenodd" d="M124.525 26.4076L124.348 26.27C122.094 17.9779 117.053 9.89071 111.211 3.58001L116.31 3.48547C120.501 9.92133 124.402 18.5787 124.525 26.4076Z" fill="#3176A3"/>
<path fill-rule="evenodd" clip-rule="evenodd" d="M126.348 27.1685C125.964 18.2602 124.307 9.33983 116.553 0.0167677L148.249 0C150.032 2.00183 152.099 13.8468 151.916 13.9714C151.74 14.0903 151.723 14.0959 151.52 14.2604C151.478 14.199 150.128 8.77727 149.709 7.56221C149.27 6.29257 149.281 6.04601 148.733 5.81713C146.807 5.01088 146.673 5.03483 145.182 3.32193C145.088 3.20439 144.967 3.02622 144.852 2.9112C144.728 2.78704 144.591 2.80205 144.276 2.79151C142.266 2.72308 138.401 2.87922 136.848 2.87475C133.91 2.86617 130.975 2.85934 128.038 2.84844C127.013 4.50617 126.87 4.79158 124.925 5.55084C125.263 7.52947 127.023 10.5828 128.052 16.2619C128.794 20.3562 129.156 24.9742 128.761 29.2813L126.358 27.4277C126.356 27.354 126.353 27.2679 126.348 27.1685Z" fill="#286A8E"/>
<path fill-rule="evenodd" clip-rule="evenodd" d="M112.502 9.15741C116.207 13.0903 121.168 19.5684 122.041 25.0559L121.876 24.9425C118.905 19.2033 112.061 13.2673 106.955 9.41747L107.137 9.40889L111.897 9.18627L112.502 9.15741Z" fill="#52A0D7"/>
<path d="M252.963 20.7387C253.861 21.6748 255.256 22.4584 257.014 22.4584C258.505 22.4584 259.231 21.7512 259.231 21.0253C259.231 20.0697 258.123 19.7449 256.651 19.401C254.568 18.923 251.893 18.3499 251.893 15.5023C251.893 13.3812 253.727 11.6613 256.728 11.6613C258.754 11.6613 260.435 12.2728 261.696 13.4385L260.187 15.4259C259.155 14.4703 257.779 14.0309 256.537 14.0309C255.314 14.0309 254.664 14.566 254.664 15.3304C254.664 16.1903 255.734 16.4579 257.205 16.8018C259.308 17.2798 261.983 17.9102 261.983 20.7387C261.983 23.0701 260.32 24.8281 256.881 24.8281C254.435 24.8281 252.677 24.0063 251.473 22.8023L252.963 20.7387Z" fill="#424242"/>
<path d="M268.061 15.1393C269.953 15.1393 271.099 15.9609 271.711 16.8208L270.125 18.2926C269.685 17.6617 269.016 17.2988 268.175 17.2988C266.704 17.2988 265.672 18.369 265.672 19.9741C265.672 21.5792 266.704 22.6685 268.175 22.6685C269.016 22.6685 269.685 22.2864 270.125 21.6747L271.711 23.1465C271.099 24.0061 269.953 24.828 268.061 24.828C265.213 24.828 263.168 22.8213 263.168 19.9741C263.168 17.146 265.213 15.1393 268.061 15.1393Z" fill="#424242"/>
<path d="M279.546 18.9804C279.546 17.7 278.878 17.2989 277.827 17.2989C276.89 17.2989 276.145 17.8337 275.724 18.3882V24.5988H273.297V11.8523H275.724V16.5725C276.317 15.8655 277.464 15.1393 278.973 15.1393C280.999 15.1393 281.973 16.2476 281.973 18.0439V24.5988H279.546V18.9804Z" fill="#424242"/>
<path d="M283.79 19.9741C283.79 17.3561 285.624 15.1393 288.663 15.1393C291.72 15.1393 293.555 17.3561 293.555 19.9741C293.555 22.6113 291.72 24.8281 288.663 24.8281C285.624 24.8281 283.79 22.6112 283.79 19.9741ZM291.033 19.9741C291.033 18.541 290.173 17.2988 288.663 17.2988C287.153 17.2988 286.313 18.5409 286.313 19.9741C286.313 21.4264 287.153 22.6686 288.663 22.6686C290.173 22.6686 291.033 21.4264 291.033 19.9741Z" fill="#424242"/>
<path d="M295.352 11.8523H297.779V24.5988H295.352V11.8523Z" fill="#424242"/>
<path d="M305.728 23.6432C305.098 24.3887 304.008 24.8281 302.804 24.8281C301.333 24.8281 299.594 23.8343 299.594 21.7703C299.594 19.6112 301.333 18.8275 302.804 18.8275C304.028 18.8275 305.117 19.2096 305.728 19.955V18.6747C305.728 17.7382 304.926 17.1269 303.703 17.1269C302.709 17.1269 301.792 17.4898 301.008 18.2162L300.091 16.5916C301.218 15.5978 302.671 15.1393 304.123 15.1393C306.225 15.1393 308.155 15.9801 308.155 18.6365V24.5988H305.728V23.6432V23.6432ZM305.728 21.2354C305.327 20.7005 304.563 20.4327 303.779 20.4327C302.824 20.4327 302.04 20.9489 302.04 21.8276C302.04 22.6877 302.824 23.1848 303.779 23.1848C304.563 23.1848 305.327 22.9169 305.728 22.382V21.2354Z" fill="#424242"/>
<path d="M310.564 15.3686H312.991V16.6298C313.641 15.8082 314.788 15.1584 315.934 15.1584V17.5281C315.762 17.4899 315.533 17.4708 315.266 17.4708C314.463 17.4708 313.393 17.9102 312.991 18.5028V24.5988H310.564V15.3686Z" fill="#424242"/>
<path d="M172.108 21.5984C172.949 22.5349 174.325 23.414 176.121 23.414C178.396 23.414 179.121 22.191 179.121 21.2163C179.121 19.6876 177.574 19.2669 175.892 18.8085C173.847 18.2736 171.573 17.7 171.573 15.1967C171.573 13.0945 173.446 11.6613 175.949 11.6613C177.898 11.6613 179.408 12.311 180.478 13.4385L179.523 14.6042C178.567 13.5531 177.23 13.0753 175.835 13.0753C174.306 13.0753 173.217 13.8972 173.217 15.1009C173.217 16.3815 174.688 16.7636 176.312 17.2033C178.396 17.7573 180.765 18.4072 180.765 21.0826C180.765 22.936 179.504 24.8281 176.064 24.8281C173.847 24.8281 172.223 23.9871 171.172 22.8023L172.108 21.5984Z" fill="#424242"/>
<path d="M187.091 15.1393C189.881 15.1393 191.525 17.3179 191.525 20.0888V20.4517H184.053C184.168 22.191 185.391 23.6432 187.378 23.6432C188.429 23.6432 189.499 23.223 190.225 22.4775L190.913 23.414C189.996 24.3314 188.754 24.8281 187.244 24.8281C184.511 24.8281 182.543 22.8596 182.543 19.9741C182.543 17.2988 184.454 15.1393 187.091 15.1393ZM184.053 19.4006H190.111C190.092 18.0248 189.174 16.324 187.072 16.324C185.104 16.3239 184.129 17.9866 184.053 19.4006Z" fill="#424242"/>
<path d="M204.979 18.3308C204.979 17.1651 204.463 16.4197 203.278 16.4197C202.323 16.4197 201.31 17.1078 200.832 17.8337V24.5988H199.399V18.3308C199.399 17.1651 198.902 16.4197 197.698 16.4197C196.762 16.4197 195.768 17.1078 195.271 17.8528V24.5988H193.838V15.3685H195.271V16.7062C195.654 16.1138 196.896 15.1393 198.252 15.1393C199.667 15.1393 200.469 15.9037 200.737 16.859C201.253 16.0182 202.495 15.1393 203.833 15.1393C205.514 15.1393 206.413 16.0756 206.413 17.9292V24.5988H204.979V18.3308H204.979Z" fill="#424242"/>
<path d="M215.051 23.5477C214.287 24.3887 213.236 24.8281 211.994 24.8281C210.427 24.8281 208.764 23.777 208.764 21.7703C208.764 19.7067 210.427 18.7319 211.994 18.7319C213.255 18.7319 214.306 19.1331 215.051 19.9932V18.3308C215.051 17.0886 214.057 16.3814 212.72 16.3814C211.611 16.3814 210.714 16.7826 209.892 17.6617L209.223 16.6679C210.216 15.6359 211.401 15.1392 212.911 15.1392C214.86 15.1392 216.484 16.0182 216.484 18.2543V24.5987H215.051V23.5477H215.051ZM215.051 20.9106C214.497 20.1461 213.523 19.764 212.51 19.764C211.172 19.764 210.236 20.6046 210.236 21.7894C210.236 22.9551 211.172 23.7961 212.51 23.7961C213.523 23.7961 214.497 23.414 215.051 22.6494V20.9106Z" fill="#424242"/>
<path d="M225.581 18.5601C225.581 16.9355 224.76 16.4197 223.518 16.4197C222.39 16.4197 221.32 17.1078 220.785 17.8528V24.5988H219.352V15.3685H220.785V16.7062C221.435 15.9418 222.696 15.1393 224.072 15.1393C226.002 15.1393 227.015 16.1138 227.015 18.1203V24.5988H225.581V18.5601H225.581Z" fill="#424242"/>
<path d="M230.169 22.6686V16.6298H228.64V15.3686H230.169V12.8461H231.602V15.3686H233.475V16.6298H231.602V22.363C231.602 23.0507 231.908 23.5478 232.538 23.5478C232.94 23.5478 233.322 23.3759 233.513 23.1657L233.933 24.2356C233.57 24.5798 233.055 24.8282 232.214 24.8282C230.857 24.8281 230.169 24.0445 230.169 22.6686Z" fill="#424242"/>
<path d="M235.252 12.8461C235.252 12.311 235.691 11.8905 236.208 11.8905C236.742 11.8905 237.182 12.311 237.182 12.8461C237.182 13.3812 236.742 13.8206 236.208 13.8206C235.691 13.8206 235.252 13.3812 235.252 12.8461ZM235.5 15.3686H236.933V24.5989H235.5V15.3686Z" fill="#424242"/>
<path d="M243.871 15.1393C245.553 15.1393 246.547 15.8272 247.253 16.7444L246.298 17.6235C245.686 16.7826 244.903 16.4196 243.948 16.4196C241.979 16.4196 240.756 17.9292 240.756 19.9741C240.756 22.019 241.979 23.5477 243.948 23.5477C244.903 23.5477 245.686 23.1656 246.298 22.3438L247.253 23.2229C246.547 24.1399 245.553 24.828 243.871 24.828C241.119 24.828 239.266 22.7258 239.266 19.9741C239.266 17.2415 241.119 15.1393 243.871 15.1393Z" fill="#424242"/>
<path d="M0 11.4531H5.12159C7.6823 11.4531 9.11546 13.2113 9.11546 15.2942C9.11546 17.3773 7.64409 19.1352 5.12159 19.1352H1.58619V24.1993H0V11.4531ZM4.93035 12.8672H1.58619V17.7211H4.93035C6.44013 17.7211 7.47214 16.7275 7.47214 15.2942C7.47214 13.861 6.44013 12.8672 4.93035 12.8672Z" fill="#424242"/>
<path d="M10.3774 19.5746C10.3774 16.8995 12.1356 14.7402 14.9448 14.7402C17.754 14.7402 19.512 16.8995 19.512 19.5746C19.512 22.2503 17.754 24.4286 14.9448 24.4286C12.1356 24.4286 10.3774 22.2503 10.3774 19.5746ZM18.0024 19.5746C18.0024 17.7021 16.9131 16.0206 14.9449 16.0206C12.9766 16.0206 11.8682 17.7021 11.8682 19.5746C11.8682 21.4667 12.9766 23.1482 14.9449 23.1482C16.9131 23.1482 18.0024 21.4667 18.0024 19.5746Z" fill="#424242"/>
<path d="M27.4247 16.7849L25.017 24.1994H23.5836L20.6406 14.9695H22.1313L24.3863 22.3268L26.8131 14.9695H28.0362L30.4631 22.3268L32.7182 14.9695H34.2088L31.2659 24.1994H29.8325L27.4247 16.7849Z" fill="#424242"/>
<path d="M39.8857 14.7402C42.6757 14.7402 44.3192 16.9184 44.3192 19.6897V20.0526H36.8472C36.9618 21.7915 38.1849 23.2438 40.1723 23.2438C41.2234 23.2438 42.2936 22.8235 43.0197 22.0785L43.7076 23.0145C42.7904 23.9319 41.5483 24.4286 40.0385 24.4286C37.3059 24.4286 35.3374 22.4605 35.3374 19.5747C35.3374 16.8995 37.2486 14.7402 39.8857 14.7402ZM36.8472 19.0015H42.9051C42.886 17.6257 41.9686 15.9249 39.8666 15.9249C37.8983 15.9248 36.9236 17.5875 36.8472 19.0015Z" fill="#424242"/>
<path d="M46.6318 14.9694H48.0652V16.4599C48.8104 15.4854 49.8807 14.7784 51.1419 14.7784V16.2498C50.9697 16.2115 50.7978 16.1924 50.5686 16.1924C49.6894 16.1924 48.4855 16.9184 48.0652 17.6638V24.1993H46.6318V14.9694Z" fill="#424242"/>
<path d="M56.9512 14.7402C59.7416 14.7402 61.3849 16.9184 61.3849 19.6897V20.0526H53.9129C54.0276 21.7915 55.2506 23.2438 57.2382 23.2438C58.2893 23.2438 59.3591 22.8235 60.0854 22.0785L60.7735 23.0145C59.8561 23.9319 58.614 24.4286 57.1044 24.4286C54.3714 24.4286 52.4033 22.4605 52.4033 19.5747C52.4033 16.8995 54.3141 14.7402 56.9512 14.7402ZM53.9129 19.0015H59.9708C59.9517 17.6257 59.0343 15.9249 56.9321 15.9249C54.964 15.9248 53.9894 17.5875 53.9129 19.0015Z" fill="#424242"/>
<path d="M70.3872 22.8235C69.699 23.7599 68.5715 24.4286 67.2721 24.4286C64.8642 24.4286 63.1636 22.5942 63.1636 19.5937C63.1636 16.6511 64.8451 14.7402 67.2721 14.7402C68.5142 14.7402 69.6417 15.3517 70.3872 16.3644V11.4531H71.8203V24.1993H70.3872V22.8235ZM70.3872 17.511C69.871 16.7085 68.7626 16.0205 67.6159 16.0205C65.7625 16.0205 64.6541 17.5492 64.6541 19.5937C64.6541 21.6386 65.7625 23.1482 67.6159 23.1482C68.7626 23.1482 69.871 22.4987 70.3872 21.6959V17.511Z" fill="#424242"/>
<path d="M79.6177 11.4531H81.0508V16.3644C81.7963 15.3517 82.9047 14.7402 84.1659 14.7402C86.5738 14.7402 88.2744 16.6511 88.2744 19.5937C88.2744 22.5942 86.5738 24.4286 84.1659 24.4286C82.8665 24.4286 81.739 23.7599 81.0508 22.8235V24.1993H79.6177V11.4531ZM83.803 23.1482C85.6755 23.1482 86.784 21.6386 86.784 19.5937C86.784 17.5492 85.6755 16.0205 83.803 16.0205C82.6755 16.0205 81.548 16.7085 81.0508 17.511V21.6959C81.548 22.4987 82.6755 23.1482 83.803 23.1482Z" fill="#424242"/>
<path d="M91.1039 26.6645C91.7343 26.6645 92.1546 26.4544 92.4798 25.6899L93.0911 24.2949L89.231 14.9695H90.7788L93.8557 22.537L96.913 14.9695H98.4806L93.8557 26.0723C93.3012 27.41 92.3652 27.9258 91.1421 27.9449C90.8361 27.9449 90.3585 27.8876 90.091 27.8111L90.3203 26.5117C90.5304 26.6072 90.8743 26.6645 91.1039 26.6645Z" fill="#424242"/>
</g>
<defs>
<radialGradient id="paint0_radial" cx="0" cy="0" r="1" gradientUnits="userSpaceOnUse" gradientTransform="translate(139.614 25.4174) rotate(6.50533) scale(18.9277)">
<stop offset="0.3" stop-color="#FDEA65"/>
<stop offset="1" stop-color="#FCB431"/>
</radialGradient>
<clipPath id="clip0">
<rect width="315.934" height="40" fill="white"/>
</clipPath>
</defs>
</svg>
