<svg width="253" height="32" viewBox="0 0 253 32" fill="none" xmlns="http://www.w3.org/2000/svg">
<g clip-path="url(#clip0)">
<path fill-rule="evenodd" clip-rule="evenodd" d="M130.329 9.79037C128.774 10.7707 127.682 11.3099 126.385 12.0899C118.709 16.7046 111.343 21.8745 105.622 28.6527L102.897 32L94.4521 18.5991C96.3369 20.0994 101.039 24.3163 102.94 25.2544L109.133 20.5966C113.463 17.5412 125.661 10.9388 130.329 9.79037Z" fill="url(#paint0_radial)"/>
<path fill-rule="evenodd" clip-rule="evenodd" d="M99.6202 21.1261L99.4786 21.016C97.6753 14.3823 93.6423 7.91258 88.9692 2.86402L93.0484 2.78839C96.4006 7.93708 99.5221 14.863 99.6202 21.1261Z" fill="#3176A3"/>
<path fill-rule="evenodd" clip-rule="evenodd" d="M101.078 21.7348C100.771 14.6082 99.4449 7.47187 93.2422 0.0134142L118.599 0C120.025 1.60146 121.679 11.0774 121.532 11.1771C121.392 11.2722 121.378 11.2767 121.216 11.4084C121.182 11.3592 120.102 7.02182 119.767 6.04977C119.415 5.03406 119.425 4.83681 118.986 4.6537C117.445 4.0087 117.338 4.02787 116.145 2.65754C116.07 2.56352 115.973 2.42097 115.881 2.32896C115.782 2.22963 115.673 2.24164 115.42 2.23321C113.812 2.17846 110.72 2.30338 109.478 2.2998C107.128 2.29293 104.78 2.28747 102.43 2.27875C101.61 3.60494 101.495 3.83327 99.9397 4.44067C100.21 6.02358 101.618 8.46621 102.441 13.0095C103.035 16.2849 103.324 19.9794 103.009 23.4251L101.086 21.9422C101.085 21.8832 101.082 21.8143 101.078 21.7348Z" fill="#286A8E"/>
<path fill-rule="evenodd" clip-rule="evenodd" d="M90.0013 7.3259C92.9658 10.4722 96.9344 15.6547 97.6325 20.0447L97.5005 19.954C95.1235 15.3626 89.6486 10.6138 85.5635 7.53394L85.7098 7.52708L89.5176 7.34899L90.0013 7.3259Z" fill="#52A0D7"/>
<path d="M202.371 16.591C203.089 17.3399 204.205 17.9668 205.612 17.9668C206.804 17.9668 207.385 17.401 207.385 16.8203C207.385 16.0558 206.498 15.796 205.321 15.5209C203.655 15.1385 201.514 14.68 201.514 12.4019C201.514 10.705 202.982 9.32904 205.382 9.32904C207.003 9.32904 208.348 9.81824 209.357 10.7508L208.149 12.3407C207.324 11.5763 206.223 11.2248 205.229 11.2248C204.251 11.2248 203.731 11.6529 203.731 12.2644C203.731 12.9522 204.587 13.1664 205.764 13.4414C207.446 13.8238 209.586 14.3282 209.586 16.591C209.586 18.4562 208.256 19.8625 205.505 19.8625C203.548 19.8625 202.141 19.205 201.178 18.2419L202.371 16.591Z" fill="#424242"/>
<path d="M214.448 12.1115C215.962 12.1115 216.879 12.7688 217.368 13.4567L216.1 14.6341C215.748 14.1295 215.213 13.8391 214.54 13.8391C213.363 13.8391 212.537 14.6952 212.537 15.9793C212.537 17.2634 213.363 18.1349 214.54 18.1349C215.213 18.1349 215.748 17.8292 216.1 17.3398L217.368 18.5172C216.879 19.205 215.962 19.8625 214.448 19.8625C212.171 19.8625 210.535 18.2571 210.535 15.9793C210.535 13.7168 212.171 12.1115 214.448 12.1115Z" fill="#424242"/>
<path d="M223.637 15.1843C223.637 14.1601 223.102 13.8391 222.262 13.8391C221.512 13.8391 220.916 14.267 220.58 14.7106V19.6791H218.638V9.48187H220.58V13.258C221.054 12.6924 221.971 12.1115 223.179 12.1115C224.799 12.1115 225.579 12.9981 225.579 14.4352V19.6791H223.637V15.1843Z" fill="#424242"/>
<path d="M227.032 15.9794C227.032 13.885 228.499 12.1115 230.93 12.1115C233.376 12.1115 234.844 13.8849 234.844 15.9794C234.844 18.0891 233.376 19.8625 230.93 19.8625C228.499 19.8625 227.032 18.089 227.032 15.9794ZM232.826 15.9794C232.826 14.8328 232.138 13.8391 230.93 13.8391C229.722 13.8391 229.05 14.8328 229.05 15.9794C229.05 17.1412 229.722 18.1349 230.93 18.1349C232.138 18.1349 232.826 17.1412 232.826 15.9794Z" fill="#424242"/>
<path d="M236.282 9.48187H238.223V19.6791H236.282V9.48187Z" fill="#424242"/>
<path d="M244.583 18.9146C244.079 19.511 243.207 19.8625 242.244 19.8625C241.067 19.8625 239.676 19.0675 239.676 17.4163C239.676 15.689 241.067 15.0621 242.244 15.0621C243.222 15.0621 244.094 15.3677 244.583 15.9641V14.9398C244.583 14.1906 243.941 13.7015 242.963 13.7015C242.168 13.7015 241.434 13.9919 240.807 14.573L240.073 13.2733C240.975 12.4783 242.137 12.1115 243.299 12.1115C244.981 12.1115 246.525 12.7841 246.525 14.9092V19.6791H244.583V18.9146V18.9146ZM244.583 16.9884C244.262 16.5605 243.651 16.3462 243.024 16.3462C242.259 16.3462 241.633 16.7591 241.633 17.4621C241.633 18.1502 242.259 18.5479 243.024 18.5479C243.651 18.5479 244.262 18.3336 244.583 17.9057V16.9884Z" fill="#424242"/>
<path d="M248.452 12.2949H250.393V13.3039C250.913 12.6466 251.83 12.1268 252.747 12.1268V14.0225C252.61 13.9919 252.427 13.9766 252.213 13.9766C251.57 13.9766 250.714 14.3282 250.393 14.8023V19.6791H248.452V12.2949Z" fill="#424242"/>
<path d="M137.687 17.2787C138.359 18.0279 139.46 18.7313 140.897 18.7313C142.716 18.7313 143.297 17.7528 143.297 16.9731C143.297 15.7501 142.059 15.4136 140.714 15.0468C139.078 14.6189 137.258 14.1601 137.258 12.1574C137.258 10.4756 138.757 9.32904 140.76 9.32904C142.319 9.32904 143.527 9.84881 144.383 10.7508L143.618 11.6834C142.854 10.8425 141.784 10.4603 140.668 10.4603C139.445 10.4603 138.573 11.1178 138.573 12.0808C138.573 13.1052 139.751 13.4109 141.05 13.7627C142.716 14.2059 144.612 14.7258 144.612 16.8661C144.612 18.3489 143.603 19.8625 140.851 19.8625C139.078 19.8625 137.778 19.1897 136.938 18.2419L137.687 17.2787Z" fill="#424242"/>
<path d="M149.673 12.1115C151.905 12.1115 153.22 13.8544 153.22 16.0711V16.3614H147.243C147.334 17.7528 148.313 18.9146 149.903 18.9146C150.743 18.9146 151.6 18.5784 152.181 17.9821L152.731 18.7313C151.997 19.4652 151.004 19.8625 149.796 19.8625C147.609 19.8625 146.035 18.2877 146.035 15.9794C146.035 13.8391 147.564 12.1115 149.673 12.1115ZM147.243 15.5206H152.089C152.074 14.4199 151.34 13.0592 149.658 13.0592C148.084 13.0592 147.304 14.3893 147.243 15.5206Z" fill="#424242"/>
<path d="M163.983 14.6647C163.983 13.7321 163.571 13.1358 162.623 13.1358C161.858 13.1358 161.048 13.6863 160.666 14.267V19.6791H159.519V14.6647C159.519 13.7321 159.122 13.1358 158.159 13.1358C157.41 13.1358 156.615 13.6863 156.217 14.2823V19.6791H155.07V12.2949H156.217V13.365C156.523 12.8911 157.517 12.1115 158.602 12.1115C159.733 12.1115 160.375 12.723 160.589 13.4873C161.002 12.8146 161.996 12.1115 163.066 12.1115C164.411 12.1115 165.13 12.8605 165.13 14.3434V19.6791H163.984V14.6647H163.983Z" fill="#424242"/>
<path d="M172.041 18.8382C171.43 19.511 170.589 19.8625 169.595 19.8625C168.341 19.8625 167.011 19.0216 167.011 17.4162C167.011 15.7654 168.341 14.9856 169.595 14.9856C170.604 14.9856 171.445 15.3065 172.041 15.9946V14.6646C172.041 13.6709 171.246 13.1052 170.176 13.1052C169.289 13.1052 168.571 13.4261 167.913 14.1294L167.378 13.3344C168.173 12.5088 169.121 12.1114 170.329 12.1114C171.888 12.1114 173.187 12.8146 173.187 14.6035V19.679H172.041V18.8382H172.041ZM172.041 16.7285C171.598 16.1169 170.818 15.8112 170.008 15.8112C168.938 15.8112 168.188 16.4837 168.188 17.4315C168.188 18.3641 168.938 19.0369 170.008 19.0369C170.818 19.0369 171.598 18.7313 172.041 18.1196V16.7285Z" fill="#424242"/>
<path d="M180.465 14.8481C180.465 13.5484 179.808 13.1358 178.814 13.1358C177.912 13.1358 177.056 13.6863 176.628 14.2823V19.6791H175.481V12.2949H176.628V13.365C177.147 12.7535 178.156 12.1115 179.257 12.1115C180.801 12.1115 181.611 12.8911 181.611 14.4963V19.6791H180.465V14.8481H180.465Z" fill="#424242"/>
<path d="M184.135 18.1349V13.3039H182.912V12.2949H184.135V10.2769H185.282V12.2949H186.78V13.3039H185.282V17.8904C185.282 18.4406 185.526 18.8382 186.031 18.8382C186.352 18.8382 186.658 18.7007 186.81 18.5326L187.147 19.3884C186.856 19.6639 186.444 19.8625 185.771 19.8625C184.686 19.8625 184.135 19.2356 184.135 18.1349Z" fill="#424242"/>
<path d="M188.202 10.2769C188.202 9.84883 188.553 9.51242 188.966 9.51242C189.394 9.51242 189.746 9.8488 189.746 10.2769C189.746 10.705 189.394 11.0565 188.966 11.0565C188.553 11.0565 188.202 10.705 188.202 10.2769ZM188.4 12.2949H189.547V19.6791H188.4V12.2949Z" fill="#424242"/>
<path d="M195.097 12.1115C196.442 12.1115 197.237 12.6618 197.803 13.3956L197.038 14.0989C196.549 13.4261 195.922 13.1357 195.158 13.1357C193.583 13.1357 192.605 14.3434 192.605 15.9793C192.605 17.6153 193.583 18.8382 195.158 18.8382C195.922 18.8382 196.549 18.5326 197.038 17.8751L197.803 18.5784C197.237 19.312 196.442 19.8625 195.097 19.8625C192.895 19.8625 191.413 18.1807 191.413 15.9793C191.413 13.7932 192.895 12.1115 195.097 12.1115Z" fill="#424242"/>
<path d="M0 9.16248H4.09727C6.14584 9.16248 7.29237 10.569 7.29237 12.2353C7.29237 13.9018 6.11527 15.3082 4.09727 15.3082H1.26895V19.3594H0V9.16248ZM3.94428 10.2937H1.26895V14.1769H3.94428C5.1521 14.1769 5.97771 13.382 5.97771 12.2353C5.97771 11.0888 5.1521 10.2937 3.94428 10.2937Z" fill="#424242"/>
<path d="M8.30225 15.6597C8.30225 13.5196 9.70876 11.7921 11.9561 11.7921C14.2035 11.7921 15.6099 13.5196 15.6099 15.6597C15.6099 17.8002 14.2035 19.5428 11.9561 19.5428C9.70876 19.5428 8.30225 17.8002 8.30225 15.6597ZM14.4023 15.6597C14.4023 14.1616 13.5308 12.8164 11.9562 12.8164C10.3815 12.8164 9.49483 14.1616 9.49483 15.6597C9.49483 17.1733 10.3816 18.5186 11.9562 18.5186C13.5308 18.5186 14.4023 17.1733 14.4023 15.6597Z" fill="#424242"/>
<path d="M21.9394 13.4279L20.0133 19.3595H18.8666L16.5122 11.9756H17.7048L19.5088 17.8614L21.4502 11.9756H22.4286L24.3702 17.8614L26.1742 11.9756H27.3668L25.0124 19.3595H23.8657L21.9394 13.4279Z" fill="#424242"/>
<path d="M31.9082 11.7921C34.1402 11.7921 35.455 13.5347 35.455 15.7517V16.0421H29.4774C29.5691 17.4332 30.5475 18.595 32.1374 18.595C32.9783 18.595 33.8345 18.2588 34.4154 17.6627L34.9657 18.4116C34.232 19.1455 33.2382 19.5429 32.0304 19.5429C29.8443 19.5429 28.2695 17.9684 28.2695 15.6597C28.2696 13.5196 29.7985 11.7921 31.9082 11.7921ZM29.4774 15.2012H34.3237C34.3084 14.1005 33.5745 12.7399 31.8929 12.7399C30.3183 12.7398 29.5385 14.0699 29.4774 15.2012Z" fill="#424242"/>
<path d="M37.3057 11.9755H38.4524V13.1679C39.0486 12.3883 39.9047 11.8227 40.9137 11.8227V12.9998C40.776 12.9692 40.6385 12.9539 40.4551 12.9539C39.7517 12.9539 38.7886 13.5347 38.4524 14.131V19.3594H37.3057V11.9755Z" fill="#424242"/>
<path d="M45.5612 11.7921C47.7934 11.7921 49.1081 13.5347 49.1081 15.7517V16.0421H43.1305C43.2222 17.4332 44.2007 18.595 45.7907 18.595C46.6316 18.595 47.4875 18.2588 48.0685 17.6627L48.619 18.4116C47.8851 19.1455 46.8914 19.5429 45.6837 19.5429C43.4973 19.5429 41.9229 17.9684 41.9229 15.6597C41.9229 13.5196 43.4515 11.7921 45.5612 11.7921ZM43.1305 15.2012H47.9768C47.9615 14.1005 47.2277 12.7399 45.5459 12.7399C43.9714 12.7398 43.1917 14.0699 43.1305 15.2012Z" fill="#424242"/>
<path d="M56.3096 18.2587C55.7591 19.0079 54.8571 19.5428 53.8176 19.5428C51.8913 19.5428 50.5308 18.0753 50.5308 15.6749C50.5308 13.3209 51.876 11.7921 53.8176 11.7921C54.8113 11.7921 55.7133 12.2813 56.3096 13.0915V9.16248H57.4562V19.3594H56.3096V18.2587ZM56.3096 14.0088C55.8967 13.3667 55.01 12.8164 54.0926 12.8164C52.6099 12.8164 51.7232 14.0394 51.7232 15.675C51.7232 17.3109 52.6099 18.5186 54.0926 18.5186C55.01 18.5186 55.8967 17.9989 56.3096 17.3567V14.0088Z" fill="#424242"/>
<path d="M63.6943 9.16248H64.8409V13.0915C65.4372 12.2813 66.324 11.7921 67.3329 11.7921C69.2592 11.7921 70.6197 13.3209 70.6197 15.6749C70.6197 18.0753 69.2592 19.5428 67.3329 19.5428C66.2934 19.5428 65.3914 19.0079 64.8409 18.2587V19.3594H63.6943V9.16248ZM67.0426 18.5186C68.5406 18.5186 69.4274 17.3109 69.4274 15.675C69.4274 14.0394 68.5406 12.8164 67.0426 12.8164C66.1406 12.8164 65.2386 13.3667 64.8409 14.0088V17.3567C65.2386 17.9989 66.1406 18.5186 67.0426 18.5186Z" fill="#424242"/>
<path d="M72.8831 21.3316C73.3875 21.3316 73.7237 21.1635 73.9838 20.5519L74.4729 19.4359L71.3848 11.9756H72.623L75.0845 18.0295L77.5304 11.9756H78.7844L75.0845 20.8578C74.641 21.928 73.8921 22.3406 72.9137 22.3559C72.6689 22.3559 72.2868 22.31 72.0728 22.2489L72.2562 21.2093C72.4243 21.2857 72.6994 21.3316 72.8831 21.3316Z" fill="#424242"/>
</g>
<defs>
<radialGradient id="paint0_radial" cx="0" cy="0" r="1" gradientUnits="userSpaceOnUse" gradientTransform="translate(111.691 20.3339) rotate(6.50533) scale(15.1421)">
<stop offset="0.3" stop-color="#FDEA65"/>
<stop offset="1" stop-color="#FCB431"/>
</radialGradient>
<clipPath id="clip0">
<rect width="252.747" height="32" fill="white"/>
</clipPath>
</defs>
</svg>
